<svg width="337" height="145" viewBox="0 0 337 145" fill="none" xmlns="http://www.w3.org/2000/svg">
<path d="M337 76C337 145.001 188.249 145 188.249 145C87.0974 145 23.1342 145 9.74659 76C-3.64104 7.00001 60.3221 7 188.249 7C212.049 7 337 6.99906 337 76Z" fill="#ECBE9B"/>
<path d="M328.5 69C328.5 86.0371 319.33 98.8385 305.472 108.481C291.603 118.131 273.08 124.582 254.511 128.888C235.95 133.193 217.383 135.347 203.452 136.423C196.488 136.962 190.685 137.231 186.624 137.366C184.593 137.433 182.998 137.466 181.911 137.483C181.368 137.492 180.952 137.496 180.672 137.498C180.582 137.499 180.506 137.499 180.444 137.499C180.41 137.5 180.38 137.5 180.355 137.5L180.275 137.5L180.255 137.5H180.25C180.25 137.5 180.249 137.5 180.249 137.526C180.249 137.569 180.249 137.686 180.249 138V137.5C129.644 137.5 88.4483 137.495 58.2231 128.894C43.1256 124.598 30.8006 118.165 21.4191 108.542C12.0402 98.9214 5.56959 86.0787 2.23744 68.9048C-1.09678 51.7202 0.404562 38.9293 6.423 29.3759C12.4427 19.8204 23.0453 13.402 38.1416 9.10591C53.2381 4.8098 72.761 2.65531 96.5286 1.57761C120.292 0.500109 148.263 0.5 180.249 0.5C192.15 0.5 229.281 0.501419 263.427 9.10948C280.502 13.4139 296.785 19.86 308.791 29.4989C320.781 39.1243 328.5 51.9269 328.5 69Z" stroke="#8A4A28"/>
<path d="M87.5273 72.7568H79.0898V78.4697H88.9922V82H74.6953V60.6719H88.9629V64.2314H79.0898V69.3145H87.5273V72.7568ZM96.0703 82V60.6719H102.633C104.508 60.6719 106.183 61.0967 107.657 61.9463C109.142 62.7861 110.299 63.9873 111.129 65.5498C111.959 67.1025 112.374 68.8701 112.374 70.8525V71.834C112.374 73.8164 111.964 75.5791 111.144 77.1221C110.333 78.665 109.186 79.8613 107.701 80.7109C106.217 81.5605 104.542 81.9902 102.677 82H96.0703ZM100.465 64.2314V78.4697H102.589C104.308 78.4697 105.621 77.9082 106.529 76.7852C107.438 75.6621 107.901 74.0557 107.921 71.9658V70.8379C107.921 68.6699 107.472 67.0293 106.573 65.916C105.675 64.793 104.361 64.2314 102.633 64.2314H100.465ZM136.225 60.6719V74.7197C136.225 77.0537 135.492 78.8994 134.027 80.2568C132.572 81.6143 130.58 82.293 128.051 82.293C125.561 82.293 123.583 81.6338 122.118 80.3154C120.653 78.9971 119.906 77.1855 119.877 74.8809V60.6719H124.271V74.749C124.271 76.1455 124.604 77.166 125.268 77.8105C125.941 78.4453 126.869 78.7627 128.051 78.7627C130.521 78.7627 131.776 77.4639 131.815 74.8662V60.6719H136.225ZM161.071 74.8955C160.905 77.1904 160.056 78.9971 158.522 80.3154C156.999 81.6338 154.987 82.293 152.487 82.293C149.753 82.293 147.6 81.375 146.027 79.5391C144.465 77.6934 143.684 75.1641 143.684 71.9512V70.6475C143.684 68.5967 144.045 66.79 144.768 65.2275C145.49 63.665 146.521 62.4688 147.858 61.6387C149.206 60.7988 150.769 60.3789 152.546 60.3789C155.007 60.3789 156.989 61.0381 158.493 62.3564C159.997 63.6748 160.866 65.5254 161.101 67.9082H156.706C156.599 66.5312 156.213 65.5352 155.549 64.9199C154.895 64.2949 153.894 63.9824 152.546 63.9824C151.081 63.9824 149.982 64.5098 149.25 65.5645C148.527 66.6094 148.156 68.2354 148.137 70.4424V72.0537C148.137 74.3584 148.483 76.043 149.177 77.1074C149.88 78.1719 150.983 78.7041 152.487 78.7041C153.845 78.7041 154.855 78.3965 155.52 77.7812C156.193 77.1562 156.579 76.1943 156.677 74.8955H161.071ZM180.498 77.6055H172.793L171.328 82H166.655L174.595 60.6719H178.667L186.65 82H181.978L180.498 77.6055ZM173.979 74.0459H179.312L176.631 66.0625L173.979 74.0459ZM207.439 64.2314H200.906V82H196.512V64.2314H190.066V60.6719H207.439V64.2314ZM219.132 82H214.737V60.6719H219.132V82ZM245.238 71.8193C245.238 73.9189 244.867 75.7598 244.125 77.3418C243.383 78.9238 242.318 80.1445 240.932 81.0039C239.555 81.8633 237.973 82.293 236.186 82.293C234.418 82.293 232.841 81.8682 231.454 81.0186C230.067 80.1689 228.993 78.958 228.231 77.3857C227.47 75.8037 227.084 73.9873 227.074 71.9365V70.8818C227.074 68.7822 227.45 66.9365 228.202 65.3447C228.964 63.7432 230.033 62.5176 231.41 61.668C232.797 60.8086 234.379 60.3789 236.156 60.3789C237.934 60.3789 239.511 60.8086 240.888 61.668C242.274 62.5176 243.344 63.7432 244.096 65.3447C244.857 66.9365 245.238 68.7773 245.238 70.8672V71.8193ZM240.785 70.8525C240.785 68.6162 240.385 66.917 239.584 65.7549C238.783 64.5928 237.641 64.0117 236.156 64.0117C234.682 64.0117 233.544 64.5879 232.743 65.7402C231.942 66.8828 231.537 68.5625 231.527 70.7793V71.8193C231.527 73.9971 231.928 75.6865 232.729 76.8877C233.529 78.0889 234.682 78.6895 236.186 78.6895C237.66 78.6895 238.793 78.1133 239.584 76.9609C240.375 75.7988 240.775 74.1094 240.785 71.8926V70.8525ZM270.275 82H265.881L257.326 67.9668V82H252.932V60.6719H257.326L265.896 74.7344V60.6719H270.275V82Z" fill="#8A4A28"/>
</svg>
