<svg width="337" height="209" viewBox="0 0 337 209" fill="none" xmlns="http://www.w3.org/2000/svg">
<path d="M337 108.5C337 209.001 188.249 209 188.249 209C87.0974 209 23.1342 209 9.74659 108.5C-3.64104 8.00001 60.3221 8 188.249 8C212.049 8 337 7.99863 337 108.5Z" fill="#ECBE9B"/>
<path d="M328.5 100.5C328.5 150.422 291.583 175.425 254.464 187.964C235.915 194.23 217.359 197.365 203.435 198.933C196.474 199.717 190.675 200.109 186.616 200.304C184.587 200.402 182.993 200.451 181.908 200.476C181.365 200.488 180.949 200.494 180.67 200.497C180.53 200.498 180.424 200.499 180.354 200.5L180.274 200.5L180.255 200.5H180.25C180.25 200.5 180.249 200.5 180.249 200.532C180.249 200.58 180.249 200.7 180.249 201V200.5C154.955 200.5 132.013 200.5 111.605 198.931C91.1982 197.363 73.3615 194.228 58.2777 187.976C43.2044 181.728 30.8754 172.365 21.4766 158.323C12.0726 144.274 5.58266 125.51 2.24222 100.434C-1.09917 75.3504 0.397516 56.6109 6.45887 42.5969C12.5105 28.6053 23.138 19.2659 38.1962 13.0244C53.2732 6.7751 72.7773 3.63852 96.5389 2.06923C120.296 0.500231 148.262 0.5 180.249 0.5C192.149 0.5 229.256 0.502684 263.377 13.0313C280.433 19.2939 296.712 28.6755 308.725 42.7228C320.729 56.7608 328.5 75.488 328.5 100.5Z" stroke="#8A4A28"/>
<path d="M71.6523 107.757H63.2148V113.47H73.1172V117H58.8203V95.6719H73.0879V99.2314H63.2148V104.314H71.6523V107.757ZM87.8271 103.025L91.8262 95.6719H96.8799L90.6689 106.248L97.041 117H91.9287L87.8271 109.529L83.7256 117H78.6133L84.9854 106.248L78.7744 95.6719H83.8281L87.8271 103.025ZM108.162 109.485V117H103.768V95.6719H112.088C113.689 95.6719 115.096 95.9648 116.307 96.5508C117.527 97.1367 118.465 97.9717 119.119 99.0557C119.773 100.13 120.101 101.355 120.101 102.732C120.101 104.822 119.383 106.473 117.947 107.684C116.521 108.885 114.544 109.485 112.015 109.485H108.162ZM108.162 105.926H112.088C113.25 105.926 114.134 105.652 114.739 105.105C115.354 104.559 115.662 103.777 115.662 102.762C115.662 101.717 115.354 100.872 114.739 100.228C114.124 99.583 113.274 99.251 112.19 99.2314H108.162V105.926ZM140.465 107.757H132.027V113.47H141.93V117H127.633V95.6719H141.9V99.2314H132.027V104.314H140.465V107.757ZM156.903 109.192H153.402V117H149.008V95.6719H156.933C159.452 95.6719 161.396 96.2334 162.763 97.3564C164.13 98.4795 164.813 100.066 164.813 102.117C164.813 103.572 164.496 104.788 163.861 105.765C163.236 106.731 162.284 107.503 161.005 108.079L165.619 116.795V117H160.902L156.903 109.192ZM153.402 105.633H156.947C158.051 105.633 158.905 105.354 159.511 104.798C160.116 104.231 160.419 103.455 160.419 102.469C160.419 101.463 160.131 100.672 159.555 100.096C158.988 99.5195 158.114 99.2314 156.933 99.2314H153.402V105.633ZM177.341 117H172.946V95.6719H177.341V117ZM198.76 107.757H190.322V113.47H200.225V117H185.928V95.6719H200.195V99.2314H190.322V104.314H198.76V107.757ZM224.646 117H220.252L211.697 102.967V117H207.303V95.6719H211.697L220.267 109.734V95.6719H224.646V117ZM249.728 109.896C249.562 112.19 248.712 113.997 247.179 115.315C245.655 116.634 243.644 117.293 241.144 117.293C238.409 117.293 236.256 116.375 234.684 114.539C233.121 112.693 232.34 110.164 232.34 106.951V105.647C232.34 103.597 232.701 101.79 233.424 100.228C234.146 98.665 235.177 97.4688 236.515 96.6387C237.862 95.7988 239.425 95.3789 241.202 95.3789C243.663 95.3789 245.646 96.0381 247.149 97.3564C248.653 98.6748 249.522 100.525 249.757 102.908H245.362C245.255 101.531 244.869 100.535 244.205 99.9199C243.551 99.2949 242.55 98.9824 241.202 98.9824C239.737 98.9824 238.639 99.5098 237.906 100.564C237.184 101.609 236.812 103.235 236.793 105.442V107.054C236.793 109.358 237.14 111.043 237.833 112.107C238.536 113.172 239.64 113.704 241.144 113.704C242.501 113.704 243.512 113.396 244.176 112.781C244.85 112.156 245.235 111.194 245.333 109.896H249.728ZM269.945 107.757H261.508V113.47H271.41V117H257.113V95.6719H271.381V99.2314H261.508V104.314H269.945V107.757Z" fill="#8A4A28"/>
</svg>
