<svg width="1440" height="199" viewBox="0 0 1440 199" fill="none" xmlns="http://www.w3.org/2000/svg">
<path d="M1165 52.45C1296.89 -11.3533 1352.45 0.747461 1440 52.45V265.503L1165 265.503V52.45Z" fill="#686130"/>
<path d="M860 50.095C977.549 111.069 1044.96 112.24 1167 51.1063V265.503L860 264.492V50.095Z" fill="#686130"/>
<path d="M550 52.2489C662.744 -4.60193 727.224 -11.4322 864 52.2489V264.501H550V52.2489Z" fill="#686130"/>
<path d="M274.5 52C384.062 111.757 447.603 104.049 554 50.095V264.501H274L274.5 52Z" fill="#686130"/>
<path d="M0 51.9769C90.7846 -22.7902 159.298 -11.3415 275 52.2726V264.5H0V51.9769Z" fill="#686130"/>
<path d="M1167 47.9637C1273.61 7.94783 1333.39 -10.221 1440 32.6783V219H1167V47.9637Z" fill="#2A4F50"/>
<path d="M1167 47.9868C1067.82 97.0903 1004.04 113.638 880 68.1027V219H1167V47.9868Z" fill="#2A4F50"/>
<path d="M318 105C436.925 147.691 500.937 147.598 606 85L605.5 219H318V105Z" fill="#2A4F50"/>
<path d="M0 122.5C133.655 20.0176 188.431 53.5179 318 105V218.95H0V122.5Z" fill="#2A4F50"/>
<path d="M605 85.5C715.666 20.72 777.234 30.3769 880 68.0002V219H605V85.5Z" fill="#2A4F50"/>
</svg>
