<svg width="1440" height="512" viewBox="0 0 1440 512" fill="none" xmlns="http://www.w3.org/2000/svg">
<path d="M0 134.259C171.489 -74.1239 285.627 -12.7724 493 134.259V474L0 474V134.259Z" fill="#ECBE9B"/>
<path d="M766 134.296C865.88 73.0986 920.231 80.1457 1015 134.296V474H766V134.296Z" fill="#ECBE9B"/>
<path d="M1015 134C1090.62 169.427 1131.65 161.47 1205 134V474.5H1015V134Z" fill="#ECBE9B"/>
<path d="M1205 134.32C1345.35 70.4084 1410.63 93.8992 1440 134.32V472.451H1205L1205 134.32Z" fill="#ECBE9B"/>
<path d="M493 134C493 134 623.215 212.841 766 134V474H493V134Z" fill="#ECBE9B"/>
<path d="M1165 298.675C1296.89 234.871 1352.45 246.972 1440 298.675V511.728L1165 511.728V298.675Z" fill="#686130"/>
<path d="M860 296.32C977.549 357.293 1044.96 358.464 1167 297.331V511.728L860 510.716V296.32Z" fill="#686130"/>
<path d="M550 298.474C662.744 241.623 727.224 234.793 864 298.474V510.726H550V298.474Z" fill="#686130"/>
<path d="M274 296.897C383.562 356.654 447.603 350.274 554 296.32V510.726H274V296.897Z" fill="#686130"/>
<path d="M0 298.202C90.7846 223.435 159.798 234.111 275.5 297.725L275 510.725H0V298.202Z" fill="#686130"/>
<path d="M885.453 391.774C1018.33 442.041 1075.23 396.85 1146.17 343V512H885.453V391.774Z" fill="#2A4F50"/>
<path d="M1145 343.56C1243.81 262.397 1351.35 198.813 1440 237.759V512H1427.13H1145V343.56Z" fill="#2A4F50"/>
<path d="M0 473.982C132.347 420.957 201.839 401.059 320.666 427.96V512H0V473.982Z" fill="#2A4F50"/>
<path d="M607.683 407.601C716.942 366.947 778.199 348.488 887.458 392.072V512H607.683V407.601Z" fill="#2A4F50"/>
<path d="M609.689 407C502.389 444.837 435.534 457.892 317.881 427.324V512H609.689V407Z" fill="#2A4F50"/>
</svg>
